<svg width="867" height="867" viewBox="0 0 867 867" fill="none" xmlns="http://www.w3.org/2000/svg">
<g clip-path="url(#clip0_7206_13715)">
<path d="M361.953 539.097C361.991 538.587 361.914 538.061 361.953 537.551V539.097Z" fill="#B40E17"/>
<path d="M653.911 449.085C641.756 466.814 624.907 477.77 610.648 493.196C593.799 511.427 577.019 523.412 553.458 533.819C525.188 546.298 492.024 548.27 464.233 559.806C454.173 563.989 442.884 573.206 432.715 578.548C392.653 599.587 356.21 601.272 319.921 633.159C318.947 634.017 315.916 633.901 316.326 636.515C330.809 626.68 344.944 615.654 362.11 610.783C386.127 603.971 412.302 608.146 435.028 597.87C454.096 589.242 487.864 556.574 505.378 554.556C525.621 552.229 534.87 556.775 556.002 547.961C573.895 540.499 587.342 526.087 602.158 519.113C606.929 516.871 612.032 516.832 616.757 515.154C651.344 502.845 673.034 475.397 690.966 444.77C694.855 479.935 691.259 504.105 656.54 518.595C640.99 525.082 624.366 526.226 612.496 539.502C609.62 542.719 606.913 547.992 603.689 551.185C583.878 570.832 541.79 569.61 515.678 583.242C489.828 596.734 476.01 623.293 444.283 625.682C413.593 627.994 385.586 623.888 359.257 644.27C334.327 663.576 310.581 685.69 285.349 704.13L262.198 727.372C265.655 728.107 268.462 722.95 271.114 720.823C287.306 707.849 306.088 701.973 323.069 690.816C352.87 671.231 368.513 647.904 406.641 640.62C433.798 635.432 465.385 642.716 490.292 632.254C500.885 627.801 508.007 618.275 520.054 617.169C537.584 615.561 556.211 621.561 573.818 621.839C574.166 623.177 573.261 623.386 572.666 624.159C549.971 653.757 530.099 645.414 497.684 644.996C457.707 644.486 416.694 643.875 385.903 673.226C367.747 690.53 363.053 709.141 335.232 716.115C311.771 721.999 294.814 721.079 273.867 736.713C267.696 741.321 259.886 748.612 255.618 754.798C260.25 751.597 263.405 747.329 268.152 744.143C286.03 732.159 313.674 735.182 334.899 731.246C385.145 721.945 380.111 685.187 417.104 664.991C450.895 646.543 485.552 650.27 522.382 652.767C523.959 652.875 529.101 653.262 530.122 653.525C530.864 653.71 530.477 654.499 530.501 655.063C517.147 661.79 506.275 673.674 490.671 675.166C459.184 678.174 453.5 669.36 430.063 696.568C410.098 719.749 402.311 734.957 370.453 745.164C331.992 757.488 291.551 742.968 258.317 770.664C256.6 772.094 252.455 777.692 252.03 777.908C250.94 778.473 247.476 776.439 247.081 775.682C246.517 774.607 249.556 754.682 250.051 751.573C259.577 691.28 279.357 609.422 328.327 569.278C335.062 563.757 351.292 552.182 359.257 549.94C361.027 549.445 360.44 551.572 360.378 552.608C359.976 558.816 356.264 569.34 353.287 574.899L322.891 616.412C354.95 588.26 390.21 566.827 429.8 550.891C458.256 539.44 524.292 523.713 538.658 495.824C546.754 480.09 522.644 485.773 517.031 478.745C511.61 471.956 517.278 475.095 520.843 475.002C559.722 473.989 589.948 463.381 616.734 433.953C620.437 429.886 625.966 423.469 626.778 418.482C622.061 422.271 615.063 429.121 609.828 431.688C608.901 432.144 607.091 433.033 606.287 432.013C633.73 402.902 657.406 370.436 678.586 336.523C681.625 349.668 681.864 363.67 681.315 377.139C680.975 385.567 680.774 394.992 676.506 402.485C673.506 407.742 666.237 412.374 663.971 417.786C661.744 423.09 663.716 428.657 661.744 434.889C660.306 439.428 656.626 445.118 653.904 449.085H653.911Z" fill="#012C9D"/>
<path d="M609.917 589.621C610.064 589.659 612.546 591.144 612.476 591.283C610.419 595.265 584.701 607.296 579.404 608.471C562.903 612.113 549.263 607.451 533.21 606.384C530.21 606.183 514.219 607.041 513.508 606.368C512.023 604.961 521.557 591.77 523.181 590.147C541.206 572.193 567.976 582.546 589.124 586.806C595.743 588.136 603.916 588.198 609.909 589.629L609.917 589.621Z" fill="#012C9D"/>
<path d="M666.601 558.43C667.351 559.095 657.685 567.933 656.564 568.876C639.622 583.018 627.374 583.219 605.924 581.611C597.248 580.961 577.476 579.098 569.775 576.778C568.622 576.43 567.625 576.036 566.867 575.046C578.621 570.407 591.735 569.324 603.411 564.43C606.991 562.93 617.244 555.662 618.474 555.453C624.443 554.433 645.282 557.974 653.1 558.415C655.273 558.538 666.106 557.982 666.616 558.43H666.601Z" fill="#012C9D"/>
<path d="M699.086 522.094C691.732 531.805 682.074 546.55 670.104 550.71C653.959 556.308 633.963 549.875 617.129 550.694C633.321 520.524 670.646 527.375 699.086 522.101V522.094Z" fill="#012C9D"/>
<path d="M361.95 530.594C361.895 532.891 362.127 535.272 361.95 537.553C361.911 538.063 361.988 538.589 361.95 539.099C361.725 541.922 362.792 543.252 359.908 545.177C357.194 546.986 338.265 553.721 334.128 554.965C333.092 555.275 332.102 555.468 331.02 555.329C334.909 545.973 348.982 532.736 358.849 530.594C359.723 530.401 360.975 530.726 361.942 530.594H361.95Z" fill="#012C9D"/>
<path d="M598.18 225.184V225.957L598.566 225.57L598.18 225.184Z" fill="#FBFCFB"/>
<path d="M598.18 225.184V225.957L598.566 225.57L598.18 225.184Z" fill="#FF0025"/>
<path d="M553.231 170.313C554.012 169.625 551.862 167.761 551.321 167.205C547.88 163.694 542.057 158.73 538.129 155.653C533.668 152.151 527.853 146.939 522.301 146.359C524.396 150.999 550.045 173.104 553.223 170.313H553.231Z" fill="#FF0025"/>
<path d="M342.906 282.425C312.216 264.209 303.269 257.683 272.316 281.428C271.667 281.931 270.004 281.583 268.999 282.348C266.208 284.459 269.084 291.912 275.053 290.76C279.43 289.918 291.477 279.742 297.779 277.121C314.543 270.147 327.031 278.219 342.906 283.199V282.425Z" fill="#FF0025"/>
<path d="M465.08 342.357C466.441 344.065 470.501 353.011 471.661 352.787C472.318 352.663 472.202 349.439 472.024 348.689C471.97 348.473 471.011 345.256 470.934 345.047C469.797 342.14 466.89 338.034 464.694 335.792C462.567 333.627 454.216 328.919 453.497 328.037C451.958 326.135 463.797 322.424 461.995 320.328L409.422 308.73C412.979 311.738 417.255 314.243 421.276 316.586C433.485 323.692 456.946 332.143 465.088 342.364L465.08 342.357Z" fill="#FF0025"/>
<path d="M248.1 372.944C246.808 372.821 238.72 373.756 240.846 375.983C241.326 376.478 253.203 380.236 253.945 380.29C264.276 381.078 254.309 373.54 248.1 372.944Z" fill="#FF0025"/>
<path d="M439.633 355.575C439.192 357.423 441.311 359.766 443.855 358.242C449.174 355.049 452.105 344.959 448.061 340.42C445.927 338.023 447.249 343.892 447.149 344.441C445.834 351.423 439.81 354.856 439.64 355.575H439.633Z" fill="#FF0025"/>
<path d="M265.194 371.352C264.753 373.339 264.738 375.102 263.965 377.073C263.021 379.462 257.284 383.011 258.629 384.488C258.838 384.712 263.887 383.452 264.599 383.12C269.416 380.846 268.967 374.468 265.194 371.352Z" fill="#FF0025"/>
<path d="M294.2 324.951C294.796 325.547 296.891 323.73 297.835 323.575C303.812 322.57 310.06 322.902 315.82 320.691L335.933 309.101L307.33 297.139L325.115 300.99C318.032 296.428 307.724 294.225 299.605 293.652L304.237 297.897C298.623 298.67 287.968 288.364 295.724 299.072C291.718 300.627 289.878 295.933 287.233 294.039C286.468 295.717 290.28 300.279 289.538 300.99C288.733 301.763 284.952 298.616 283.359 299.459L287.218 303.704L284.133 304.848L289.53 307.191C285.633 309.974 294.038 308.227 291.092 314.142L294.943 309.511C293.914 312.433 297.309 317.297 297.247 319.191C297.201 320.699 292.785 323.559 294.177 324.967L294.2 324.951ZM312.318 314.853C313.965 312.626 314.081 308.946 314.305 308.714C315.302 307.701 323.406 311.474 325.123 311.822C319.602 315.464 313.114 318.232 306.572 319.531C308.158 317.32 310.531 317.273 312.325 314.853H312.318Z" fill="#FF0025"/>
<path d="M661.308 274.129C643.083 277.353 624.424 292.083 608.155 300.619C590.115 310.083 570.815 317.32 550.927 321.874C551.484 323.18 557.384 324.186 558.265 324.186H570.251C567.173 326.397 561.838 327.116 558.018 327.804C532.106 332.466 502.746 331.647 477.468 324.193C475.96 325.624 489.284 333.448 489.67 335.505C490.691 340.948 474.746 360.533 470.091 364.368C463.372 369.904 459.382 369.611 453.211 373.005C450.551 374.466 448.495 378.495 445.525 380.01C438.319 383.698 431.607 376.546 429.109 378.239C423.341 382.152 417.503 412.337 408.664 422.018C393.547 438.556 319.81 466.631 295.94 474.765C281.202 479.791 261.136 487.523 260.247 463.615C260.061 458.59 264.801 441.982 262.93 439.337C262.319 438.479 260.34 438.757 260.2 438.595C258.476 436.569 265.489 434.242 267.384 433.059C271.157 430.701 275.418 427.956 278.99 425.335C280.359 424.33 288.942 418.314 288.022 416.984C287.697 416.52 278.998 414.224 277.212 413.482C271.428 411.062 253.489 400.716 248.609 402.688C246.444 403.562 246.359 407.087 243.947 406.917C244.465 400.237 251.161 397.631 249.808 389.884C248.439 382.044 242.075 382.028 237.815 377.884C222.628 363.1 231.838 360.789 241.24 349.716C247.736 342.07 255.553 332.041 257.656 322.059C260.347 309.24 254.602 303.534 250.813 292.33C245.733 277.299 254.618 238.098 263.425 223.446C266.688 218.018 276.926 206.204 283.723 206.691C287.844 206.985 311.66 226.555 312.751 225.225C313.748 224.003 309.085 219.495 308.142 218.637C301.322 212.397 293.388 206.529 286.854 199.717C286.012 198.843 281.341 193.647 281.055 193.137C280.436 192.016 280.645 191.15 281.449 191.22C291.54 198.604 304.755 206.135 317.398 206.281L305.807 193.129C306.611 192.109 308.413 193.006 309.34 193.462C314.359 195.928 331.262 213.557 335.979 218.629C343.046 226.245 349.41 234.65 356.053 242.629C357.328 245.931 348.598 239.66 347.833 239.25C341.747 236.011 334.255 233.567 328.672 230.567C327.636 230.011 327.643 228.263 327.071 228.302C326.383 228.356 326.012 230.049 326.599 231.039C327.063 231.828 337.108 240.859 338.693 242.204C387.802 283.918 484.428 316.879 544.756 284.382C546.373 283.508 557.322 275.722 557.879 276.255C559.58 277.871 542.328 291.031 540.805 292.029C524.691 302.559 506.171 307.632 487.118 309.479C486.005 309.588 474.785 309.116 479.966 311.25C488.951 314.954 519.649 311.884 530.181 310.021C561.799 304.423 573.119 294.634 597.832 277.152C600.129 275.529 612.733 269.003 612.764 268.129C612.833 265.848 598.567 262.415 596.069 262.431C592.451 262.454 589.102 264.116 585.716 265.044C584.942 265.261 583.257 266.142 583.404 264.665C590.556 259.856 598.273 255.572 605.302 250.601C619.306 240.696 626.574 233.521 644.088 227.529C667.564 219.495 683.686 221.073 704.007 235.67C703.064 232.524 700.86 231.518 698.401 229.686C685.302 219.936 650.336 213.426 634.144 216.047C619.352 218.436 607.599 227.915 594.229 233.722C606.818 223.694 621.262 216.271 636.758 211.701C649.578 207.921 668.592 203.343 681.645 206.25C686.988 207.441 691.682 211.037 697.071 212.08C671.724 191.22 635.845 210.805 608.008 216.975C579.089 223.384 555.597 221.908 532.369 202.044C536.119 200.915 538.346 205.16 540.31 206.119C551.484 211.578 570.444 219.287 578.764 205.91C551.569 211.516 523.268 193.709 501.199 179.459C479.858 165.681 460.967 148.215 438.775 135.952L422.567 130.137C426.588 129.728 430.486 130.609 434.305 131.761C451.255 136.872 467.354 152.684 482.177 162.921C491.735 169.524 501.617 175.74 511.886 181.145C512.489 179.985 501.772 173.506 506.38 174.271C526.214 187.926 546.674 193.934 568.488 179.807C569.006 179.475 570.869 179.057 569.485 178.075C568.828 177.604 556.448 175.833 553.618 174.99C525.82 166.694 524.335 146.32 504.555 135.905C497.395 132.14 486.902 128.452 479.015 127.423C491.116 141.99 503.913 159.171 523.856 160.3C521.675 161.8 517.028 161.166 514.546 160.709C504.23 158.831 490.25 144.89 482.858 137.498C479.981 134.622 474.847 127.153 472.001 125.158C466.952 121.617 450.598 119.112 444.219 118.918C456.73 133.439 472.171 147.356 492.16 148.694C492.624 150.936 491.077 150.24 489.423 150.271C477.723 150.488 459.251 139.524 450.397 132.07C447.049 129.256 437.893 118.23 435.133 117.179C433.927 116.722 429.96 116.313 428.39 116.189C424.57 115.872 387.253 115.795 386.983 118.161C386.642 121.13 403.236 136.47 406.383 138.967C418.933 148.887 434.499 154.671 446.291 163.238C446.824 163.624 449.075 164.823 448.069 165.704C446.515 167.057 412.136 158.521 407.876 156.805C395.96 151.988 381.23 141.503 374.989 130.161C378.778 132.557 381.902 137.63 385.057 140.189C390.029 144.233 408.115 154.57 414.039 155.343C415.33 155.514 415.933 155.63 416.358 154.122C410.953 149.684 405.865 144.728 400.491 140.212C396.439 136.81 375.5 119.722 372.306 118.856C371.054 118.516 347.709 122.282 346.781 123.179C344.624 125.266 361.898 140.529 363.862 142.045C380.982 155.328 403.553 164.838 420.426 177.318C420.897 177.666 423.952 180.596 423.333 181.153C422.552 181.856 405.556 175.493 403.259 174.557C390.802 169.47 379.544 162.333 369.035 154.068C364.048 150.14 339.76 126.944 336.922 126.411C335.097 126.07 318.001 132.225 314.885 133.416C303.874 137.622 282.98 149.444 272.549 150.681C266.843 151.354 260.633 146.003 255.576 150.666C245.493 159.952 271.451 180.975 270.175 185.297C269.959 186.031 265.149 188.923 263.881 191.444C262.412 194.39 262.768 200.127 262.451 200.452C262.064 200.854 254.447 202.725 251.903 204.209C219.767 222.913 249.669 250.802 247.689 274.222C247.264 279.248 243.614 287.242 244.078 291.124C244.712 296.459 254.834 307.593 253.991 311.428C253.458 313.84 245.331 305.815 247.411 311.807L244.705 309.503C243.599 311.497 248.107 316.948 247.79 317.227C247.094 317.83 244.333 315.031 244.705 317.606C247.024 320.211 250.573 321.487 253.968 321.881C253.473 323.784 247.04 321.758 247.009 323.034C246.97 324.402 254.424 324.217 253.929 326.072C252.684 330.742 247.071 339.247 243.9 343.113C235.047 353.884 217.927 360.68 230.376 376.794C236.415 384.603 250.055 385.19 244.612 397.956C242.508 402.897 239.841 402.379 241.024 409.453C241.797 414.077 247.473 420.348 247.798 422.853C248.115 425.304 245.4 429.626 245.478 432.85C245.671 441.518 255.051 443.404 256.729 451.731C258.337 459.711 255.422 467.566 259.002 475.747C264.708 488.767 278.99 486.139 290.581 484.901C319.578 481.824 333.365 468.092 351.722 499.004C355.705 505.716 361.806 520.492 361.287 528.131C361.195 529.553 359.95 529.824 359.13 530.644C360.004 530.45 361.256 530.775 362.223 530.644C362.695 511.213 355.828 485.28 371.912 471.131C389.813 455.389 410.311 450.842 421.647 426.533C426.905 415.252 429.187 395.01 443.994 393.216C463.094 390.904 461.779 407.83 466.596 421.244C472.117 436.623 480.407 450.966 486.801 465.989C487.188 466.801 487.683 467.195 488.611 467.242C491.719 467.396 528.781 444.247 530.011 441.324L516.974 435.827C509.427 431.976 503.921 426.603 498.787 419.992C484.165 401.172 497.782 414.51 505.53 418.662C514.584 423.502 535.199 428.412 545.097 426.27C548.066 425.628 558.768 409.082 560.786 405.618C563.245 401.389 565.843 396.819 567.807 392.373C568.055 391.817 572.184 378.015 572.57 384.131C572.934 389.938 565.495 406.84 566.361 407.698C568.673 409.979 581.996 399.711 584.161 397.283C600.067 379.461 600.144 353.157 615.2 333.997C622.081 325.229 632.915 321.773 641.73 314.9C650.955 307.709 661.053 296.938 667.201 287.018C674.307 275.544 678.699 271.06 661.285 274.145L661.308 274.129Z" fill="#FF0025"/>
</g>
<defs>
<clipPath id="clip0_7206_13715">
<rect width="478" height="662" fill="white" transform="translate(226 116)"/>
</clipPath>
</defs>
</svg>
