<svg width="1565" height="867" viewBox="0 0 1565 867" fill="none" xmlns="http://www.w3.org/2000/svg">
<path d="M758 514.809V351.714H782.608V493.626H856.51V514.809H758Z" fill="black"/>
<path d="M989.463 351.714H1014.15V458.984C1014.15 470.399 1011.47 480.513 1006.11 489.326C1000.74 498.086 993.206 504.988 983.49 510.031C973.775 515.022 962.387 517.517 949.326 517.517C936.319 517.517 924.958 515.022 915.242 510.031C905.526 504.988 897.987 498.086 892.625 489.326C887.263 480.513 884.582 470.399 884.582 458.984V351.714H909.19V456.993C909.19 464.373 910.809 470.93 914.047 476.664C917.339 482.397 921.985 486.91 927.984 490.202C933.983 493.44 941.097 495.06 949.326 495.06C957.609 495.06 964.749 493.44 970.749 490.202C976.801 486.91 981.42 482.397 984.605 476.664C987.844 470.93 989.463 464.373 989.463 456.993V351.714Z" fill="black"/>
<path d="M1185.39 404.752H1160.54C1159.59 399.443 1157.81 394.771 1155.21 390.736C1152.6 386.701 1149.42 383.277 1145.65 380.463C1141.88 377.649 1137.66 375.525 1132.99 374.092C1128.37 372.659 1123.46 371.942 1118.26 371.942C1108.86 371.942 1100.44 374.304 1093.01 379.029C1085.63 383.755 1079.79 390.683 1075.49 399.815C1071.24 408.946 1069.12 420.095 1069.12 433.262C1069.12 446.535 1071.24 457.737 1075.49 466.868C1079.79 476 1085.66 482.902 1093.09 487.574C1100.52 492.246 1108.88 494.582 1118.18 494.582C1123.33 494.582 1128.21 493.892 1132.83 492.511C1137.5 491.078 1141.72 488.981 1145.49 486.22C1149.26 483.459 1152.45 480.088 1155.05 476.106C1157.7 472.071 1159.53 467.452 1160.54 462.249L1185.39 462.329C1184.06 470.346 1181.49 477.725 1177.66 484.468C1173.89 491.157 1169.04 496.944 1163.09 501.829C1157.2 506.66 1150.45 510.403 1142.86 513.057C1135.27 515.712 1126.99 517.039 1118.02 517.039C1103.89 517.039 1091.31 513.695 1080.27 507.005C1069.23 500.263 1060.52 490.627 1054.15 478.097C1047.83 465.568 1044.67 450.623 1044.67 433.262C1044.67 415.848 1047.86 400.903 1054.23 388.427C1060.6 375.897 1069.31 366.288 1080.35 359.598C1091.39 352.856 1103.95 349.484 1118.02 349.484C1126.67 349.484 1134.74 350.732 1142.23 353.227C1149.76 355.669 1156.53 359.28 1162.53 364.058C1168.53 368.783 1173.5 374.57 1177.42 381.419C1181.35 388.214 1184.01 395.992 1185.39 404.752Z" fill="black"/>
<path d="M1245.44 351.714V514.809H1220.83V351.714H1245.44Z" fill="black"/>
<path d="M1288.28 514.809V351.714H1390.53V372.897H1312.89V422.591H1385.2V443.694H1312.89V493.626H1391.49V514.809H1288.28Z" fill="black"/>
<g clip-path="url(#clip0_7206_13714)">
<path d="M326.195 528.635C326.235 528.106 326.155 527.561 326.195 527.031V528.635Z" fill="#B40E17"/>
<path d="M629.046 435.257C616.437 453.649 598.96 465.015 584.169 481.016C566.692 499.93 549.286 512.362 524.846 523.158C495.522 536.104 461.12 538.15 432.293 550.117C421.858 554.456 410.147 564.017 399.6 569.56C358.043 591.384 320.24 593.133 282.598 626.211C281.588 627.102 278.443 626.981 278.868 629.692C293.892 619.49 308.554 608.052 326.36 602.999C351.273 595.932 378.424 600.264 401.998 589.604C421.777 580.652 456.805 546.764 474.972 544.671C495.971 542.256 505.564 546.973 527.485 537.829C546.046 530.089 559.994 515.137 575.362 507.903C580.311 505.577 585.605 505.536 590.506 503.796C626.383 491.027 648.882 462.552 667.483 430.781C671.517 467.261 667.787 492.334 631.773 507.365C615.643 514.095 598.398 515.282 586.086 529.054C583.102 532.391 580.295 537.861 576.95 541.173C556.401 561.555 512.743 560.287 485.656 574.428C458.842 588.425 444.509 615.977 411.599 618.455C379.764 620.853 350.712 616.594 323.401 637.737C297.541 657.766 272.909 680.706 246.737 699.836L222.722 723.946C226.307 724.708 229.219 719.358 231.97 717.153C248.766 703.694 268.249 697.598 285.863 686.023C316.775 665.706 333.002 641.507 372.553 633.952C400.722 628.57 433.488 636.125 459.323 625.273C470.312 620.653 477.699 610.771 490.196 609.624C508.379 607.956 527.702 614.18 545.966 614.469C546.326 615.856 545.388 616.073 544.77 616.875C521.229 647.579 500.615 638.925 466.991 638.491C425.523 637.962 382.98 637.328 351.041 667.776C332.208 685.727 327.339 705.033 298.48 712.268C274.144 718.372 256.554 717.417 234.825 733.636C228.425 738.416 220.324 745.98 215.896 752.397C220.701 749.076 223.973 744.649 228.898 741.344C247.442 728.911 276.117 732.048 298.135 727.965C350.255 718.316 345.033 680.184 383.405 659.234C418.457 640.096 454.407 643.962 492.61 646.552C494.247 646.665 499.58 647.066 500.639 647.339C501.409 647.531 501.008 648.349 501.032 648.935C487.18 655.913 475.903 668.241 459.716 669.789C427.055 672.909 421.16 663.765 396.848 691.991C376.138 716.038 368.061 731.815 335.015 742.403C295.119 755.188 253.169 740.125 218.695 768.856C216.915 770.34 212.616 776.147 212.174 776.371C211.043 776.957 207.45 774.847 207.041 774.061C206.455 772.946 209.608 752.276 210.121 749.052C220.003 686.505 240.52 601.587 291.317 559.942C298.303 554.215 315.139 542.208 323.401 539.882C325.237 539.369 324.628 541.574 324.564 542.649C324.147 549.09 320.297 560.007 317.208 565.774L285.678 608.838C318.933 579.634 355.508 557.4 396.576 540.869C426.093 528.99 494.591 512.675 509.494 483.744C517.892 467.421 492.883 473.316 487.06 466.025C481.437 458.983 487.316 462.239 491.014 462.143C531.343 461.092 562.697 450.088 590.482 419.56C594.324 415.341 600.059 408.684 600.901 403.51C596.008 407.44 588.749 414.547 583.319 417.21C582.356 417.683 580.48 418.606 579.645 417.547C608.112 387.348 632.672 353.668 654.641 318.488C657.793 332.124 658.042 346.65 657.473 360.622C657.12 369.365 656.911 379.143 652.483 386.915C649.371 392.369 641.832 397.174 639.482 402.788C637.171 408.291 639.217 414.066 637.172 420.531C635.68 425.239 631.862 431.142 629.038 435.257H629.046Z" fill="#012C9D"/>
<path d="M583.409 581.045C583.562 581.085 586.137 582.625 586.064 582.769C583.931 586.9 557.253 599.381 551.759 600.6C534.642 604.378 520.493 599.541 503.842 598.434C500.73 598.225 484.142 599.116 483.404 598.418C481.864 596.958 491.754 583.274 493.439 581.59C512.135 562.965 539.904 573.705 561.841 578.125C568.707 579.505 577.185 579.569 583.401 581.053L583.409 581.045Z" fill="#012C9D"/>
<path d="M642.208 548.689C642.986 549.379 632.96 558.547 631.797 559.525C614.223 574.196 601.518 574.404 579.268 572.736C570.268 572.062 549.759 570.129 541.77 567.723C540.575 567.362 539.54 566.953 538.754 565.926C550.946 561.113 564.549 559.99 576.661 554.913C580.375 553.357 591.01 545.817 592.286 545.601C598.478 544.542 620.094 548.216 628.203 548.673C630.457 548.801 641.695 548.224 642.224 548.689H642.208Z" fill="#012C9D"/>
<path d="M675.905 510.996C668.277 521.07 658.258 536.366 645.842 540.682C629.094 546.489 608.352 539.815 590.891 540.666C607.686 509.368 646.404 516.474 675.905 511.004V510.996Z" fill="#012C9D"/>
<path d="M326.193 519.815C326.137 522.198 326.378 524.668 326.193 527.034C326.153 527.564 326.233 528.109 326.193 528.639C325.961 531.566 327.067 532.946 324.076 534.943C321.26 536.82 301.625 543.806 297.334 545.097C296.259 545.418 295.232 545.619 294.109 545.474C298.144 535.769 312.742 522.037 322.977 519.815C323.883 519.615 325.182 519.952 326.185 519.815H326.193Z" fill="#012C9D"/>
<path d="M571.234 202.988V203.79L571.635 203.389L571.234 202.988Z" fill="#FBFCFB"/>
<path d="M571.234 202.988V203.79L571.635 203.389L571.234 202.988Z" fill="#FF0025"/>
<path d="M524.611 146.064C525.421 145.35 523.191 143.417 522.63 142.839C519.061 139.198 513.021 134.048 508.946 130.856C504.318 127.223 498.286 121.816 492.527 121.215C494.701 126.027 521.306 148.959 524.603 146.064H524.611Z" fill="#FF0025"/>
<path d="M306.437 262.369C274.602 243.472 265.322 236.702 233.214 261.334C232.541 261.856 230.816 261.495 229.773 262.289C226.878 264.478 229.862 272.211 236.054 271.015C240.594 270.141 253.09 259.586 259.627 256.867C277.017 249.632 289.97 258.005 306.437 263.171V262.369Z" fill="#FF0025"/>
<path d="M433.172 324.539C434.584 326.312 438.795 335.592 439.998 335.36C440.68 335.231 440.559 331.886 440.375 331.108C440.319 330.884 439.324 327.547 439.244 327.331C438.065 324.315 435.049 320.056 432.771 317.73C430.565 315.484 421.903 310.599 421.157 309.685C419.561 307.711 431.841 303.861 429.972 301.688L375.438 289.656C379.127 292.776 383.563 295.375 387.734 297.806C400.399 305.177 424.734 313.944 433.18 324.547L433.172 324.539Z" fill="#FF0025"/>
<path d="M208.094 356.269C206.755 356.141 198.365 357.111 200.571 359.421C201.068 359.935 213.388 363.833 214.158 363.889C224.874 364.707 214.535 356.887 208.094 356.269Z" fill="#FF0025"/>
<path d="M406.775 338.253C406.318 340.17 408.516 342.6 411.155 341.02C416.673 337.707 419.713 327.24 415.518 322.532C413.304 320.045 414.676 326.133 414.572 326.702C413.208 333.945 406.96 337.507 406.783 338.253H406.775Z" fill="#FF0025"/>
<path d="M225.829 354.617C225.372 356.679 225.356 358.507 224.554 360.553C223.575 363.031 217.624 366.713 219.019 368.245C219.236 368.477 224.474 367.17 225.212 366.825C230.209 364.467 229.743 357.85 225.829 354.617Z" fill="#FF0025"/>
<path d="M255.917 306.484C256.535 307.102 258.709 305.217 259.687 305.057C265.887 304.014 272.368 304.359 278.344 302.065L299.206 290.041L269.537 277.633L287.985 281.627C280.638 276.895 269.946 274.609 261.524 274.016L266.328 278.419C260.505 279.221 249.452 268.529 257.497 279.638C253.343 281.251 251.434 276.382 248.69 274.417C247.896 276.157 251.851 280.89 251.081 281.627C250.246 282.43 246.324 279.165 244.672 280.039L248.674 284.443L245.474 285.63L251.073 288.06C247.03 290.948 255.749 289.135 252.693 295.271L256.687 290.467C255.62 293.498 259.142 298.544 259.077 300.509C259.029 302.073 254.449 305.041 255.893 306.5L255.917 306.484ZM274.71 296.009C276.419 293.699 276.539 289.881 276.772 289.64C277.806 288.59 286.212 292.504 287.993 292.865C282.266 296.643 275.536 299.514 268.751 300.862C270.395 298.568 272.857 298.52 274.718 296.009H274.71Z" fill="#FF0025"/>
<path d="M636.718 253.761C617.813 257.106 598.458 272.386 581.582 281.241C562.869 291.059 542.849 298.566 522.219 303.291C522.797 304.646 528.917 305.689 529.831 305.689H542.264C539.071 307.983 533.537 308.729 529.575 309.443C502.696 314.279 472.241 313.429 446.021 305.697C444.456 307.181 458.276 315.298 458.678 317.431C459.736 323.078 443.197 343.395 438.369 347.374C431.398 353.117 427.26 352.812 420.859 356.333C418.1 357.849 415.966 362.028 412.886 363.6C405.411 367.426 398.448 360.007 395.858 361.763C389.874 365.822 383.818 397.135 374.65 407.178C358.969 424.334 282.482 453.458 257.721 461.896C242.433 467.11 221.619 475.131 220.696 450.33C220.504 445.117 225.421 427.888 223.48 425.145C222.846 424.254 220.793 424.543 220.648 424.375C218.86 422.273 226.135 419.859 228.1 418.632C232.014 416.185 236.434 413.338 240.139 410.619C241.559 409.576 250.462 403.336 249.508 401.956C249.171 401.475 240.147 399.093 238.294 398.323C232.295 395.812 213.686 385.08 208.625 387.125C206.379 388.032 206.291 391.689 203.788 391.513C204.326 384.583 211.272 381.88 209.868 373.843C208.448 365.709 201.847 365.693 197.428 361.394C181.675 346.058 191.228 343.66 200.981 332.174C207.719 324.241 215.828 313.838 218.009 303.483C220.801 290.184 214.841 284.265 210.911 272.643C205.641 257.05 214.857 216.384 223.993 201.184C227.378 195.553 237.998 183.297 245.048 183.803C249.323 184.107 274.028 204.408 275.159 203.029C276.193 201.762 271.357 197.085 270.378 196.195C263.304 189.722 255.074 183.634 248.296 176.568C247.422 175.661 242.578 170.271 242.281 169.742C241.639 168.579 241.856 167.681 242.69 167.753C253.157 175.413 266.865 183.225 279.979 183.378L267.956 169.734C268.79 168.675 270.659 169.606 271.621 170.079C276.827 172.638 294.361 190.925 299.253 196.187C306.585 204.088 313.186 212.806 320.076 221.084C321.399 224.509 312.344 218.004 311.55 217.579C305.237 214.218 297.465 211.683 291.674 208.571C290.599 207.994 290.607 206.181 290.013 206.221C289.299 206.277 288.914 208.034 289.524 209.061C290.005 209.879 300.425 219.247 302.069 220.643C353.01 263.916 453.239 298.109 515.819 264.397C517.495 263.491 528.853 255.414 529.43 255.967C531.195 257.643 513.3 271.295 511.72 272.33C495.004 283.254 475.794 288.516 456.031 290.433C454.876 290.545 443.237 290.056 448.611 292.27C457.932 296.112 489.775 292.927 500.699 290.994C533.497 285.187 545.239 275.033 570.874 256.897C573.257 255.213 586.331 248.443 586.363 247.537C586.435 245.171 571.636 241.61 569.046 241.626C565.292 241.65 561.819 243.374 558.306 244.337C557.503 244.561 555.755 245.476 555.907 243.944C563.327 238.955 571.332 234.511 578.623 229.354C593.148 219.079 600.688 211.635 618.856 205.419C643.207 197.085 659.931 198.722 681.01 213.865C680.031 210.601 677.745 209.558 675.195 207.657C661.607 197.543 625.337 190.789 608.541 193.508C593.197 195.986 581.005 205.82 567.137 211.844C580.195 201.441 595.178 193.741 611.252 189C624.55 185.078 644.274 180.33 657.813 183.346C663.356 184.581 668.224 188.31 673.815 189.393C647.522 167.753 610.305 188.07 581.43 194.471C551.432 201.12 527.064 199.588 502.969 178.982C506.859 177.811 509.169 182.215 511.207 183.209C522.797 188.872 542.464 196.869 551.095 182.993C522.885 188.808 493.529 170.336 470.637 155.553C448.499 141.26 428.904 123.14 405.884 110.419L389.072 104.387C393.243 103.962 397.285 104.877 401.248 106.072C418.83 111.374 435.529 127.776 450.905 138.396C460.819 145.246 471.07 151.695 481.722 157.302C482.347 156.098 471.23 149.377 476.011 150.171C496.584 164.336 517.808 170.568 540.435 155.914C540.972 155.569 542.905 155.136 541.47 154.117C540.788 153.628 527.946 151.791 525.011 150.917C496.175 142.31 494.635 121.175 474.118 110.371C466.69 106.465 455.806 102.639 447.625 101.572C460.177 116.684 473.452 134.506 494.138 135.677C491.876 137.233 487.056 136.575 484.481 136.102C473.781 134.153 459.279 119.691 451.611 112.023C448.627 109.04 443.301 101.291 440.35 99.222C435.112 95.5484 418.148 92.9496 411.53 92.7491C424.508 107.812 440.526 122.25 461.26 123.638C461.742 125.964 460.137 125.242 458.421 125.274C446.285 125.499 427.123 114.125 417.939 106.393C414.466 103.473 404.969 92.0352 402.106 90.9443C400.855 90.4711 396.74 90.046 395.112 89.9177C391.149 89.5888 352.44 89.5086 352.16 91.963C351.807 95.043 369.02 110.957 372.284 113.547C385.302 123.838 401.448 129.838 413.68 138.725C414.234 139.126 416.568 140.369 415.525 141.284C413.913 142.687 378.252 133.832 373.832 132.052C361.472 127.055 346.192 116.178 339.719 104.411C343.649 106.898 346.89 112.16 350.162 114.815C355.32 119.01 374.081 129.734 380.225 130.536C381.564 130.712 382.19 130.832 382.631 129.268C377.024 124.664 371.747 119.523 366.172 114.839C361.969 111.309 340.248 93.5832 336.936 92.6849C335.636 92.332 311.421 96.2382 310.459 97.1686C308.221 99.3342 326.14 115.168 328.177 116.74C345.935 130.52 369.348 140.385 386.85 153.331C387.339 153.692 390.508 156.732 389.866 157.31C389.056 158.039 371.426 151.438 369.044 150.468C356.122 145.19 344.443 137.787 333.543 129.212C328.369 125.138 303.176 101.075 300.232 100.521C298.339 100.168 280.605 106.553 277.372 107.788C265.951 112.152 244.278 124.416 233.458 125.699C227.538 126.397 221.098 120.846 215.852 125.683C205.393 135.316 232.319 157.125 230.995 161.609C230.771 162.371 225.782 165.371 224.466 167.985C222.942 171.041 223.311 176.993 222.982 177.33C222.581 177.747 214.681 179.688 212.042 181.228C178.707 200.631 209.724 229.562 207.67 253.858C207.229 259.071 203.443 267.365 203.925 271.391C204.582 276.926 215.082 288.476 214.208 292.454C213.654 294.957 205.224 286.631 207.382 292.847L204.574 290.457C203.427 292.526 208.104 298.181 207.775 298.47C207.053 299.096 204.189 296.192 204.574 298.863C206.981 301.566 210.662 302.889 214.183 303.299C213.67 305.272 206.997 303.17 206.965 304.494C206.925 305.913 214.657 305.721 214.143 307.646C212.852 312.491 207.029 321.314 203.74 325.324C194.556 336.497 176.798 343.548 189.712 360.263C195.976 368.364 210.125 368.974 204.478 382.217C202.296 387.342 199.529 386.804 200.756 394.144C201.559 398.94 207.446 405.445 207.783 408.044C208.112 410.587 205.296 415.07 205.376 418.415C205.577 427.406 215.306 429.364 217.047 438.002C218.715 446.28 215.691 454.429 219.405 462.915C225.325 476.422 240.139 473.695 252.163 472.412C282.241 469.22 296.542 454.974 315.584 487.042C319.715 494.004 326.043 509.332 325.506 517.257C325.41 518.733 324.118 519.014 323.268 519.864C324.175 519.663 325.474 520 326.477 519.864C326.966 499.707 319.843 472.805 336.527 458.127C355.095 441.796 376.359 437.08 388.117 411.862C393.572 400.159 395.938 379.161 411.298 377.3C431.11 374.901 429.746 392.459 434.743 406.376C440.47 422.329 449.068 437.208 455.702 452.793C456.103 453.635 456.616 454.044 457.579 454.092C460.803 454.253 499.247 430.238 500.523 427.206L486.999 421.503C479.171 417.509 473.46 411.934 468.134 405.076C452.967 385.553 467.092 399.389 475.128 403.697C484.521 408.718 505.905 413.811 516.172 411.589C519.252 410.923 530.353 393.759 532.446 390.165C534.997 385.778 537.692 381.037 539.729 376.425C539.986 375.848 544.269 361.531 544.67 367.875C545.047 373.899 537.331 391.433 538.229 392.323C540.627 394.689 554.447 384.037 556.693 381.519C573.192 363.03 573.273 335.743 588.889 315.867C596.028 306.772 607.265 303.186 616.409 296.056C625.978 288.596 636.454 277.423 642.83 267.132C650.201 255.229 654.757 250.577 636.694 253.777L636.718 253.761Z" fill="#FF0025"/>
</g>
<defs>
<clipPath id="clip0_7206_13714">
<rect width="495.83" height="686.744" fill="white" transform="translate(185.172 89.7227)"/>
</clipPath>
</defs>
</svg>
